<?xml version="1.0" encoding="UTF-8" standalone="no"?>
<svg
   version="1.1"
   id="Capa_1"
   x="0px"
   y="0px"
   viewBox="0 0 395 395"
   style="enable-background:new 0 0 395 395;"
   xml:space="preserve"
   sodipodi:docname="dam.svg"
   inkscape:export-filename="/Users/nickmazany-wright/Desktop/icon.png"
   inkscape:export-xdpi="96"
   inkscape:export-ydpi="96"
   inkscape:version="1.1.1 (3bf5ae0d25, 2021-09-20)"
   xmlns:inkscape="http://www.inkscape.org/namespaces/inkscape"
   xmlns:sodipodi="http://sodipodi.sourceforge.net/DTD/sodipodi-0.dtd"
   xmlns="http://www.w3.org/2000/svg"
   xmlns:svg="http://www.w3.org/2000/svg"
   xmlns:rdf="http://www.w3.org/1999/02/22-rdf-syntax-ns#"
   xmlns:cc="http://creativecommons.org/ns#"
   xmlns:dc="http://purl.org/dc/elements/1.1/"><metadata
   id="metadata63"><rdf:RDF><cc:Work
       rdf:about=""><dc:format>image/svg+xml</dc:format><dc:type
         rdf:resource="http://purl.org/dc/dcmitype/StillImage" /></cc:Work></rdf:RDF></metadata><defs
   id="defs61" /><sodipodi:namedview
   pagecolor="#ffffff"
   bordercolor="#666666"
   borderopacity="1"
   objecttolerance="10"
   gridtolerance="10"
   guidetolerance="10"
   inkscape:pageopacity="0"
   inkscape:pageshadow="2"
   inkscape:window-width="2880"
   inkscape:window-height="1526"
   id="namedview59"
   showgrid="false"
   inkscape:zoom="1.4455696"
   inkscape:cx="126.24781"
   inkscape:cy="229.32137"
   inkscape:window-x="2869"
   inkscape:window-y="-11"
   inkscape:window-maximized="1"
   inkscape:current-layer="Capa_1"
   inkscape:pagecheckerboard="0" />
<g
   id="g26"
   style="fill:#ffffff">
	<path
   d="M313.001,0H81.999C36.785,0,0,36.784,0,81.998v230.993C0,358.211,36.785,395,81.999,395h231.002   C358.216,395,395,358.211,395,312.991V81.998C395,36.784,358.216,0,313.001,0z M380,312.991C380,349.94,349.945,380,313.001,380   H81.999C45.056,380,15,349.94,15,312.991V81.998C15,45.056,45.056,15,81.999,15h231.002C349.945,15,380,45.056,380,81.998V312.991z   "
   id="path10"
   style="fill:#ffffff" />
	<polygon
   points="147.793,114 147.793,281 256.506,281 195.041,114  "
   id="polygon12"
   style="fill:#ffffff" />
	<rect
   x="30.705"
   y="263.159"
   width="99.704"
   height="16.638"
   id="rect14"
   style="fill:#ffffff" />
	<rect
   x="30.705"
   y="216.612"
   width="99.704"
   height="16.637"
   id="rect16"
   style="fill:#ffffff" />
	<rect
   x="30.705"
   y="170.064"
   width="99.704"
   height="16.638"
   id="rect18"
   style="fill:#ffffff" />
	<rect
   x="30.705"
   y="123.518"
   width="99.704"
   height="16.637"
   id="rect20"
   style="fill:#ffffff" />
	<path
   d="M283.186,232.838c2.162,0,2.951,0.569,4.68,1.817c2.349,1.696,5.567,4.018,11.489,4.018c5.923,0,9.141-2.322,11.491-4.018   c1.729-1.248,2.518-1.817,4.681-1.817c2.164,0,2.954,0.569,4.683,1.818c2.35,1.695,5.568,4.018,11.491,4.018   c5.924,0,9.143-2.322,11.493-4.018c1.729-1.248,2.519-1.817,4.682-1.817v-11.637c-5.923,0-9.142,2.322-11.492,4.018   c-1.73,1.249-2.519,1.818-4.683,1.818c-2.163,0-2.952-0.569-4.681-1.817c-2.35-1.696-5.568-4.018-11.493-4.018   c-5.923,0-9.142,2.322-11.491,4.018c-1.729,1.248-2.518,1.817-4.681,1.817c-2.161,0-2.95-0.569-4.678-1.817   c-2.35-1.695-5.567-4.018-11.491-4.018c-5.923,0-9.141,2.322-11.49,4.018c-1.729,1.248-2.518,1.817-4.681,1.817   s-2.952-0.569-4.681-1.817c-2.35-1.696-5.567-4.018-11.49-4.018v11.637c2.162,0,2.951,0.569,4.68,1.817   c2.35,1.696,5.568,4.018,11.491,4.018c5.923,0,9.142-2.322,11.491-4.018C280.236,233.407,281.024,232.838,283.186,232.838z"
   id="path22"
   style="fill:#ffffff" />
	<path
   d="M348.12,257.341c-2.163,0-2.952-0.569-4.681-1.817c-2.35-1.696-5.568-4.019-11.493-4.019   c-5.924,0-9.142,2.322-11.491,4.019c-1.729,1.248-2.518,1.817-4.681,1.817c-2.161,0-2.949-0.569-4.677-1.816   c-2.35-1.696-5.568-4.02-11.492-4.02c-5.923,0-9.141,2.322-11.49,4.019c-1.729,1.248-2.518,1.817-4.681,1.817   s-2.952-0.569-4.681-1.817c-2.35-1.696-5.567-4.019-11.49-4.019v11.637c2.162,0,2.951,0.569,4.68,1.817   c2.35,1.696,5.568,4.018,11.491,4.018c5.923,0,9.142-2.322,11.491-4.018c1.729-1.248,2.518-1.817,4.68-1.817   c2.163,0,2.952,0.569,4.681,1.817c2.349,1.696,5.566,4.018,11.488,4.018c5.923,0,9.141-2.322,11.491-4.018   c1.729-1.248,2.518-1.817,4.681-1.817c2.164,0,2.954,0.569,4.683,1.818c2.35,1.695,5.568,4.018,11.491,4.018   c5.923,0,9.142-2.322,11.492-4.018c1.73-1.249,2.519-1.818,4.683-1.818v-11.637c-5.924,0-9.143,2.322-11.493,4.019   C351.073,256.772,350.283,257.341,348.12,257.341z"
   id="path24"
   style="fill:#ffffff" />
</g>
<g
   id="g28">
</g>
<g
   id="g30">
</g>
<g
   id="g32">
</g>
<g
   id="g34">
</g>
<g
   id="g36">
</g>
<g
   id="g38">
</g>
<g
   id="g40">
</g>
<g
   id="g42">
</g>
<g
   id="g44">
</g>
<g
   id="g46">
</g>
<g
   id="g48">
</g>
<g
   id="g50">
</g>
<g
   id="g52">
</g>
<g
   id="g54">
</g>
<g
   id="g56">
</g>
</svg>
