<?xml version="1.0" encoding="UTF-8" standalone="no"?>
<svg
   version="1.1"
   id="Capa_1"
   x="0px"
   y="0px"
   viewBox="0 0 395 395"
   style="enable-background:new 0 0 395 395;"
   xml:space="preserve"
   sodipodi:docname="fishway.svg"
   inkscape:export-filename="/Users/nickmazany-wright/Desktop/icon.png"
   inkscape:export-xdpi="96"
   inkscape:export-ydpi="96"
   inkscape:version="1.1.1 (3bf5ae0d25, 2021-09-20)"
   xmlns:inkscape="http://www.inkscape.org/namespaces/inkscape"
   xmlns:sodipodi="http://sodipodi.sourceforge.net/DTD/sodipodi-0.dtd"
   xmlns="http://www.w3.org/2000/svg"
   xmlns:svg="http://www.w3.org/2000/svg"
   xmlns:rdf="http://www.w3.org/1999/02/22-rdf-syntax-ns#"
   xmlns:cc="http://creativecommons.org/ns#"
   xmlns:dc="http://purl.org/dc/elements/1.1/"><metadata
   id="metadata63"><rdf:RDF><cc:Work
       rdf:about=""><dc:format>image/svg+xml</dc:format><dc:type
         rdf:resource="http://purl.org/dc/dcmitype/StillImage" /></cc:Work></rdf:RDF></metadata><defs
   id="defs61"><inkscape:perspective
   sodipodi:type="inkscape:persp3d"
   inkscape:vp_x="0 : 526.18109 : 1"
   inkscape:vp_y="0 : 1000 : 0"
   inkscape:vp_z="744.09448 : 526.18109 : 1"
   inkscape:persp3d-origin="372.04724 : 350.78739 : 1"
   id="perspective12393" />
	
	
	
	
	
	
	
	
</defs><sodipodi:namedview
   pagecolor="#ffffff"
   bordercolor="#666666"
   borderopacity="1"
   objecttolerance="10"
   gridtolerance="10"
   guidetolerance="10"
   inkscape:pageopacity="0"
   inkscape:pageshadow="2"
   inkscape:window-width="2880"
   inkscape:window-height="1526"
   id="namedview59"
   showgrid="false"
   inkscape:zoom="1.4455696"
   inkscape:cx="126.24781"
   inkscape:cy="229.32137"
   inkscape:window-x="2869"
   inkscape:window-y="-11"
   inkscape:window-maximized="1"
   inkscape:current-layer="Capa_1"
   inkscape:pagecheckerboard="0" />

<g
   id="g28"
   style="fill:#ffffff">
</g>
<g
   id="g30"
   style="fill:#ffffff">
</g>
<g
   id="g32"
   style="fill:#ffffff">
</g>
<g
   id="g34"
   style="fill:#ffffff">
</g>
<g
   id="g36"
   style="fill:#ffffff">
</g>
<g
   id="g38"
   style="fill:#ffffff">
</g>
<g
   id="g40"
   style="fill:#ffffff">
</g>
<g
   id="g42"
   style="fill:#ffffff">
</g>
<g
   id="g44"
   style="fill:#ffffff">
</g>
<g
   id="g46"
   style="fill:#ffffff">
</g>
<g
   id="g48"
   style="fill:#ffffff">
</g>
<g
   id="g50"
   style="fill:#ffffff">
</g>
<g
   id="g52"
   style="fill:#ffffff">
</g>
<g
   id="g54"
   style="fill:#ffffff">
</g>
<g
   id="g56"
   style="fill:#ffffff">
</g>
<g
   id="g1149"
   style="fill:#ffffff"><path
     d="M 313.001,0 H 81.999 C 36.785,0 0,36.784 0,81.998 V 312.991 C 0,358.211 36.785,395 81.999,395 H 313.001 C 358.216,395 395,358.211 395,312.991 V 81.998 C 395,36.784 358.216,0 313.001,0 Z M 380,312.991 C 380,349.94 349.945,380 313.001,380 H 81.999 C 45.056,380 15,349.94 15,312.991 V 81.998 C 15,45.056 45.056,15 81.999,15 H 313.001 C 349.945,15 380,45.056 380,81.998 Z"
     id="path10"
     style="fill:#ffffff" /><g
     id="g250"
     transform="matrix(0.39632738,0,0,0.39632738,362.41861,123.13284)"
     style="fill:#ffffff"><path
       d="m -601.86581,59.1957 c 15.20815,0 27.56477,12.35663 27.56477,27.63267 l 0.13579,39.64983 c 0,42.63714 34.55781,77.26284 77.26285,77.26284 h 64.83832 c 15.20816,0 27.70057,12.49241 27.70057,27.70057 v 39.64982 c 0,42.70504 34.6257,77.33074 77.33073,77.33074 h 65.31359 c 15.27604,0 27.76845,12.35662 27.76845,27.70056 v 76.38023 h 49.56228 v -76.38023 c 0,-42.70503 -34.6257,-77.26284 -77.33073,-77.26284 l -64.97412,-0.13579 c -15.20815,0 -27.56477,-12.35662 -27.56477,-27.63267 l -0.54315,-39.64982 c 0,-42.63714 -34.55781,-77.26285 -77.26285,-77.26285 h -64.83832 c -15.41184,0 -27.76846,-12.49241 -27.76846,-27.70056 l -0.13579,-39.64983 c 0,-42.56924 -34.35413,-77.19495 -77.05916,-77.19495 h -86.36058 v 49.4265 z"
       style="fill:#ffffff;fill-opacity:1;fill-rule:nonzero;stroke:none"
       id="path4818" /><path
       d="m -420.92954,-37.89205 c 7.06093,0 12.89978,-5.63517 12.89978,-12.76399 0,-7.19671 -5.83885,-12.83188 -12.89978,-12.83188 -7.12882,0 -12.83187,5.63517 -12.83187,12.83188 0,7.12882 5.70305,12.76399 12.83187,12.76399 m -54.24693,-28.31161 c -1.0863,-1.08629 -1.76523,-2.51206 -1.76523,-4.27729 0,-2.64785 1.90101,-4.88834 4.27729,-5.70306 17.92389,-4.48097 95.18674,-23.491162 191.86713,48.54388 l 39.51404,-6.78935 39.51404,54.38272 -26.00322,4.68465 c 38.90299,57.50583 38.35984,132.05293 35.16885,161.72241 l 40.9398,66.73934 c 0.40736,0.67894 0.54315,1.28998 0.54315,2.1047 0,2.91943 -2.37628,5.15991 -5.15991,5.15991 -0.95051,0 -1.83313,-0.27157 -2.64785,-0.81472 l -57.30214,-24.50957 -57.23426,24.50957 c -0.81472,0.54315 -1.76523,0.81472 -2.64784,0.81472 -2.91943,0 -5.22781,-2.24048 -5.22781,-5.15991 0,-0.81472 0.13579,-1.42576 0.40737,-2.1047 l 41.14348,-66.73934 c 0,-69.99824 -79.43544,-102.11188 -100.27875,-108.96913 -41.21138,-13.91817 -135.10814,-74.5471 -155.00095,-125.05989 -0.27157,-0.67894 -0.54315,-1.69734 -0.54315,-2.51206 0,-3.32679 2.64785,-5.97463 5.97463,-5.97463 1.56156,0 2.64785,0.27157 4.00572,1.35787 l 26.61427,19.62123 c 0.67893,0.54315 1.49366,0.88261 2.37627,0.88261 1.90102,0 3.46257,-1.42576 3.46257,-3.25889 0,-1.08629 -0.54314,-2.0368 -1.28997,-2.71574 z"
       style="fill:#ffffff;fill-opacity:1;fill-rule:nonzero;stroke:none"
       id="path4820" /></g></g></svg>
