<?xml version="1.0" encoding="UTF-8" standalone="no"?>
<svg
   version="1.1"
   id="Capa_1"
   x="0px"
   y="0px"
   viewBox="0 0 395 395"
   style="enable-background:new 0 0 395 395;"
   xml:space="preserve"
   sodipodi:docname="waterfall.svg"
   inkscape:export-filename="/Users/nickmazany-wright/Desktop/icon.png"
   inkscape:export-xdpi="96"
   inkscape:export-ydpi="96"
   inkscape:version="1.1.1 (3bf5ae0d25, 2021-09-20)"
   xmlns:inkscape="http://www.inkscape.org/namespaces/inkscape"
   xmlns:sodipodi="http://sodipodi.sourceforge.net/DTD/sodipodi-0.dtd"
   xmlns="http://www.w3.org/2000/svg"
   xmlns:svg="http://www.w3.org/2000/svg"
   xmlns:rdf="http://www.w3.org/1999/02/22-rdf-syntax-ns#"
   xmlns:cc="http://creativecommons.org/ns#"
   xmlns:dc="http://purl.org/dc/elements/1.1/"><metadata
   id="metadata63"><rdf:RDF><cc:Work
       rdf:about=""><dc:format>image/svg+xml</dc:format><dc:type
         rdf:resource="http://purl.org/dc/dcmitype/StillImage" /></cc:Work></rdf:RDF></metadata><defs
   id="defs61">
	
	
	
	
	
	
	
	
</defs><sodipodi:namedview
   pagecolor="#ffffff"
   bordercolor="#666666"
   borderopacity="1"
   objecttolerance="10"
   gridtolerance="10"
   guidetolerance="10"
   inkscape:pageopacity="0"
   inkscape:pageshadow="2"
   inkscape:window-width="2880"
   inkscape:window-height="1526"
   id="namedview59"
   showgrid="false"
   inkscape:zoom="1.4455696"
   inkscape:cx="126.24781"
   inkscape:cy="229.32137"
   inkscape:window-x="2869"
   inkscape:window-y="-11"
   inkscape:window-maximized="1"
   inkscape:current-layer="Capa_1"
   inkscape:pagecheckerboard="0" />

<g
   id="g28">
</g>
<g
   id="g30">
</g>
<g
   id="g32">
</g>
<g
   id="g34">
</g>
<g
   id="g36">
</g>
<g
   id="g38">
</g>
<g
   id="g40">
</g>
<g
   id="g42">
</g>
<g
   id="g44">
</g>
<g
   id="g46">
</g>
<g
   id="g48">
</g>
<g
   id="g50">
</g>
<g
   id="g52">
</g>
<g
   id="g54">
</g>
<g
   id="g56">
</g>
<g
   id="g2478"
   style="fill:#ffffff"><path
     d="M 313.001,0 H 81.999 C 36.785,0 0,36.784 0,81.998 V 312.991 C 0,358.211 36.785,395 81.999,395 H 313.001 C 358.216,395 395,358.211 395,312.991 V 81.998 C 395,36.784 358.216,0 313.001,0 Z M 380,312.991 C 380,349.94 349.945,380 313.001,380 H 81.999 C 45.056,380 15,349.94 15,312.991 V 81.998 C 15,45.056 45.056,15 81.999,15 H 313.001 C 349.945,15 380,45.056 380,81.998 Z"
     id="path10"
     style="fill:#ffffff" /><g
     id="g254"
     transform="matrix(2.8550197,0,0,2.8550197,53.900339,54.321079)"
     style="fill:#ffffff"><path
       d="m 86.1,69.6 c -2.6,0 -3.8,-0.6 -5.3,-1.3 -1.6,-0.7 -3.4,-1.6 -6.8,-1.6 -2.3,0 -3.9,0.4 -5.1,0.9 V 27.3 h 17.2 c 1,0 1.7,-0.8 1.7,-1.7 0,-1 -0.8,-1.7 -1.7,-1.7 H 68.8 C 68.3,20.8 65.6,18.5 62.4,18.5 H 37.6 c -3.2,0 -5.9,2.3 -6.4,5.4 H 13.9 c -1,0 -1.7,0.8 -1.7,1.7 0,1 0.8,1.7 1.7,1.7 h 17.2 v 40.3 c -1.3,-0.5 -2.8,-0.9 -5.1,-0.9 -3.4,0 -5.2,0.8 -6.8,1.6 -1.4,0.7 -2.7,1.3 -5.3,1.3 -1,0 -1.7,0.8 -1.7,1.7 0,1 0.8,1.7 1.7,1.7 3.4,0 5.2,-0.8 6.8,-1.6 1.4,-0.7 2.7,-1.3 5.3,-1.3 2.6,0 3.9,0.6 5.3,1.3 1.6,0.7 3.4,1.6 6.8,1.6 1.3,0 2.4,-0.1 3.3,-0.3 0,0 0.1,0 0.1,0 0.3,0 0.6,-0.1 0.9,-0.3 1,-0.3 1.7,-0.7 2.5,-1 1.4,-0.7 2.7,-1.3 5.3,-1.3 2.6,0 3.8,0.6 5.3,1.3 1.6,0.7 3.4,1.6 6.8,1.6 3.4,0 5.2,-0.8 6.8,-1.6 1.4,-0.7 2.7,-1.3 5.3,-1.3 2.6,0 3.8,0.6 5.3,1.3 1.6,0.7 3.4,1.6 6.8,1.6 1,0 1.7,-0.8 1.7,-1.7 -0.4,-0.9 -1.1,-1.7 -2.1,-1.7 z M 65.5,69.1 c -0.9,0.3 -1.9,0.5 -3.4,0.5 -2.6,0 -3.8,-0.6 -5.3,-1.3 -1.6,-0.7 -3.4,-1.6 -6.8,-1.6 -3.4,0 -5.2,0.8 -6.8,1.6 0,0 -0.1,0 -0.1,0.1 V 45 c 0,-1 -0.8,-1.7 -1.7,-1.7 -1,0 -1.7,0.8 -1.7,1.7 v 24.5 c -0.5,0.1 -1,0.1 -1.7,0.1 -1.5,0 -2.6,-0.2 -3.5,-0.5 V 24.9 c 0,-1.7 1.4,-3 3,-3 h 2.1 v 15.4 c 0,1 0.8,1.7 1.7,1.7 1,0 1.7,-0.8 1.7,-1.7 V 21.9 h 19.3 c 1.7,0 3,1.4 3,3 v 44.2 z"
       id="path246"
       style="fill:#ffffff" /><path
       d="m 86.1,78.1 c -2.6,0 -3.8,-0.6 -5.3,-1.3 -1.6,-0.7 -3.4,-1.6 -6.8,-1.6 -3.4,0 -5.2,0.8 -6.8,1.6 -1.4,0.7 -2.7,1.3 -5.3,1.3 -2.6,0 -3.8,-0.6 -5.3,-1.3 -1.6,-0.7 -3.4,-1.6 -6.8,-1.6 -3.4,0 -5.2,0.8 -6.8,1.6 -1.4,0.7 -2.7,1.3 -5.3,1.3 -2.6,0 -3.9,-0.6 -5.3,-1.3 -1.6,-0.7 -3.4,-1.6 -6.8,-1.6 -3.4,0 -5.2,0.8 -6.8,1.6 -1.4,0.7 -2.7,1.3 -5.3,1.3 -1,0 -1.7,0.8 -1.7,1.7 0,1 0.8,1.7 1.7,1.7 3.4,0 5.2,-0.8 6.8,-1.6 1.4,-0.7 2.7,-1.3 5.3,-1.3 2.6,0 3.9,0.6 5.3,1.3 1.6,0.7 3.4,1.6 6.8,1.6 3.4,0 5.2,-0.8 6.8,-1.6 1.4,-0.7 2.7,-1.3 5.3,-1.3 2.6,0 3.8,0.6 5.3,1.3 1.6,0.7 3.4,1.6 6.8,1.6 3.4,0 5.2,-0.8 6.8,-1.6 1.4,-0.7 2.7,-1.3 5.3,-1.3 2.6,0 3.8,0.6 5.3,1.3 1.6,0.7 3.4,1.6 6.8,1.6 1,0 1.7,-0.8 1.7,-1.7 0,-0.9 -0.7,-1.7 -1.7,-1.7 z"
       id="path248"
       style="fill:#ffffff" /><path
       d="m 50,23.8 c -1,0 -1.7,0.8 -1.7,1.7 V 62 c 0,1 0.8,1.7 1.7,1.7 1,0 1.7,-0.8 1.7,-1.7 V 25.5 C 51.7,24.6 51,23.8 50,23.8 Z"
       id="path250"
       style="fill:#ffffff" /><path
       d="m 58.6,39.3 c -1,0 -1.7,0.8 -1.7,1.7 v 25 c 0,1 0.8,1.7 1.7,1.7 1,0 1.7,-0.8 1.7,-1.7 V 41 c 0,-0.9 -0.7,-1.7 -1.7,-1.7 z"
       id="path252"
       style="fill:#ffffff" /></g></g></svg>
