<svg viewBox="0 0 201.95 41.04" xmlns="http://www.w3.org/2000/svg"><g fill="#fff"><path d="m26.54 3.06a22.59 22.59 0 0 1 18.68 7.11 20.51 20.51 0 0 0 -38.17 8.76 22.63 22.63 0 0 1 19.49-15.87z"/><path d="m45.87 13.22a13.3 13.3 0 0 0 -4.26-4.22 9.54 9.54 0 0 0 -8.13-1 11.47 11.47 0 0 0 -5 3.81 9.15 9.15 0 0 1 -3.8 2.19c-1.59.61-5.68 2-6.81 2.42s-1.24 1.37 1.13 1.58 4.57-.67 7.93-.25a22.42 22.42 0 0 1 5.36 1.25 30.63 30.63 0 0 0 3.71-4c1.45-1.8 2.83-5.13 5.11-3.76s.71 4.57-.4 6.1a22.81 22.81 0 0 1 -4.4 4.28 8.37 8.37 0 0 1 1.51 4.1 7 7 0 0 1 -1.77 5.42 7.28 7.28 0 0 0 -1.34-6.93c-3.9-5.02-13.71-4.78-22.17-3.67-5.87.78-10.85.19-12.54-4.49 0 0 .79 8.47 11.18 8.38 8.78-.08 14.93-1.78 18.39 3 0 0-3.19-2.69-11.12-1.63-8.25 1.12-11.18 1.03-15.45-1.8 0 0 3 6.73 12.43 6.31 4-.18 8.32-.18 10 .54a5.91 5.91 0 0 1 2.73 1.84 17.3 17.3 0 0 0 -7.51-1.14c-4.16.15-8.42 1.14-11.41-.74 0 0 2.64 3.3 9.07 4.07s6.14 1.52 6.14 1.52-1 1.37-10.68-1l-.67-.17a20.52 20.52 0 0 0 34.84-12.9 14.5 14.5 0 0 0 -2.07-9.11zm-12.79-.31a.92.92 0 0 1 -1.23-.34.92.92 0 0 1 .65-1.1.93.93 0 0 1 1.24.34.93.93 0 0 1 -.66 1.1z"/><path d="m60.38 7.55a4 4 0 0 0 -2.59-1 3.92 3.92 0 0 0 -3.87 4 3.86 3.86 0 0 0 6.46 3v1.45a5.36 5.36 0 0 1 -2.58.69 5.07 5.07 0 0 1 -5.1-5.06 5.15 5.15 0 0 1 5.21-5.16 4.68 4.68 0 0 1 2.47.67z"/><path d="m64.89 13-1.12 2.45h-1.31l4.68-10.19 4.68 10.22h-1.31l-1.12-2.48zm2.25-5.09-1.74 4h3.48z"/><path d="m74.24 5.21 7.35 7.71v-7.24h1.23v10.21l-7.36-7.71v7.3h-1.22z"/><path d="m87.67 13-1.12 2.45h-1.32l4.68-10.19 4.68 10.22h-1.31l-1.12-2.48zm2.24-5.09-1.74 4h3.49z"/><path d="m97 5.68h2c3 0 5.5 1.59 5.5 4.85s-2.44 5-5.54 5h-1.96zm1.23 8.68h.43c2.49 0 4.65-.93 4.65-3.78s-2.14-3.78-4.63-3.78h-.43z"/><path d="m108.67 15.48h-1.22v-9.8h1.22z"/><path d="m113.61 13-1.11 2.45h-1.32l4.68-10.22 4.68 10.22h-1.31l-1.12-2.45zm2.25-5.09-1.74 4h3.48z"/><path d="m123 5.21 7.36 7.71v-7.24h1.22v10.21l-7.36-7.71v7.3h-1.22z"/><path d="m143.45 12.7 2.77-7.23 2.78 7.23 2.74-7h1.33l-4.07 10.17-2.77-7.19-2.77 7.19-4.08-10.19h1.32z"/><path d="m156.72 15.48h-1.22v-9.8h1.22z"/><path d="m161.49 14.36h3v1.12h-4.2v-9.8h1.22z"/><path d="m166.89 5.68h2c3 0 5.49 1.59 5.49 4.85s-2.44 5-5.53 5h-2zm1.22 8.68h.43c2.49 0 4.65-.93 4.65-3.78s-2.19-3.78-4.65-3.78h-.43z"/><path d="m178.57 14.36h3v1.12h-4.2v-9.8h1.22z"/><path d="m185.26 15.48h-1.26v-9.8h1.23z"/><path d="m190 6.8v2.75h3.41v1.12h-3.41v4.81h-1.22v-9.8h4.75v1.12z"/><path d="m196.68 5.68h5.32v1.12h-4v2.74h3.93v1.12h-4.03v3.7h4v1.12h-5.27z"/><path d="m56 21.45v4.77h5.9v1.93h-5.9v8.33h-2.1v-17h8.22v1.94z"/><path d="m67.29 19.51h9.12v1.94h-7v4.75h6.79v1.93h-6.79v6.42h7v1.93h-9.12z"/><path d="m82 19.51h3.5c5.19 0 9.52 2.75 9.52 8.4s-4.24 8.57-9.59 8.57h-3.43zm2.12 15h.74c4.32 0 8.06-1.62 8.06-6.55s-3.74-6.55-8.06-6.55h-.76z"/><path d="m98.48 19.51h9.11v1.94h-7v4.75h6.8v1.93h-6.8v6.42h7v1.93h-9.11z"/><path d="m123.9 36.48h-2.56l-5-7.18h-.88v7.18h-2.11v-17h2.56a8.92 8.92 0 0 1 4.48.79 4.69 4.69 0 0 1 2.23 4.05 4.62 4.62 0 0 1 -4.07 4.75zm-8.44-8.93h.68c2.16 0 4.5-.41 4.5-3.11s-2.52-3-4.61-3h-.57z"/><path d="m131.12 32.23-1.93 4.25h-2.27l8.08-17.69 8.1 17.69h-2.27l-1.94-4.25zm3.9-8.8-3 6.86h6z"/><path d="m150 36.48h-2.11v-15h-4v-1.97h10.11v1.94h-4z"/><path d="m160.44 36.48h-2.11v-17h2.11z"/><path d="m182.9 28a8.89 8.89 0 0 1 -17.78 0 8.89 8.89 0 0 1 17.78 0zm-2.12 0a6.77 6.77 0 1 0 -13.54 0 6.77 6.77 0 1 0 13.54 0z"/><path d="m187 18.7 12.74 13.35v-12.54h2.12v17.67l-12.75-13.35v12.65h-2.11z"/></g></svg>